# xmcd
#
# Track frame offsets: 
#        150
#        18283
#        43879
#        61621
#        77712
#        97907
#        116369
#        133983
#        150098
#        165148
#        185336
#
# Disc length: 2782 seconds
#
# Revision: 0
# Processed by: cddbd v1.5.2PL0 Copyright (c) Steve Scherf et al.
# Submitted via: ExactAudioCopyFreeDBPlugin 1.0
#
DISCID=730adc0b
DTITLE=Barbara Morgenstern - Doppelstern
DYEAR=2015
DGENRE=Blues
TTITLE0=Was du nicht siehst (with T.Raumschmiere)
TTITLE1=Meins sollte meins sein (with Hauschka)
TTITLE2=Too much (with Gudrun Gut)
TTITLE3=Übermorgen (with Robert Lippok and Justus Köhncke)
TTITLE4=No one nowhere cares (with Corey Dargel)
TTITLE5=Gleich ist gleicher als gleich (with Lucrecia Dalt)
TTITLE6=Facades (with Julia Kent and T.Raumschmiere)
TTITLE7=Aglow (with Coppé)
TTITLE8=Schiess den Bock (with Tonia Reeh)
TTITLE9=Lost in a fiction (with Richard Davis)
TTITLE10=Den kommenden Morgen (with Jacaszek)
EXTD=
EXTT0=
EXTT1=
EXTT2=
EXTT3=
EXTT4=
EXTT5=
EXTT6=
EXTT7=
EXTT8=
EXTT9=
EXTT10=
PLAYORDER=
